<svg xmlns="http://www.w3.org/2000/svg" width="880" height="284" viewBox="0 0 880 284" fill="none">
<text x="440" y="24" fill="#FF1F8F" font-family="ui-monospace,SFMono-Regular,Menlo,Consolas,monospace" font-size="12" font-weight="700" letter-spacing="2.5" text-anchor="middle">LANGAGES</text>
<rect x="195.2" y="38" width="138.0" height="36" rx="9" fill="#12080f" stroke="#FF1F8F" stroke-opacity="0.38"/>
<g transform="translate(209.2,47.5) scale(0.7083)"><path d="M1.125 0C.502 0 0 .502 0 1.125v21.75C0 23.498.502 24 1.125 24h21.75c.623 0 1.125-.502 1.125-1.125V1.125C24 .502 23.498 0 22.875 0zm17.363 9.75c.612 0 1.154.037 1.627.111a6.38 6.38 0 0 1 1.306.34v2.458a3.95 3.95 0 0 0-.643-.361 5.093 5.093 0 0 0-.717-.26 5.453 5.453 0 0 0-1.426-.2c-.3 0-.573.028-.819.086a2.1 2.1 0 0 0-.623.242c-.17.104-.3.229-.393.374a.888.888 0 0 0-.14.49c0 .196.053.373.156.529.104.156.252.304.443.444s.423.276.696.41c.273.135.582.274.926.416.47.197.892.407 1.266.628.374.222.695.473.963.753.268.279.472.598.614.957.142.359.214.776.214 1.253 0 .657-.125 1.21-.373 1.656a3.033 3.033 0 0 1-1.012 1.085 4.38 4.38 0 0 1-1.487.596c-.566.12-1.163.18-1.79.18a9.916 9.916 0 0 1-1.84-.164 5.544 5.544 0 0 1-1.512-.493v-2.63a5.033 5.033 0 0 0 3.237 1.2c.333 0 .624-.03.872-.09.249-.06.456-.144.623-.25.166-.108.29-.234.373-.38a1.023 1.023 0 0 0-.074-1.089 2.12 2.12 0 0 0-.537-.5 5.597 5.597 0 0 0-.807-.444 27.72 27.72 0 0 0-1.007-.436c-.918-.383-1.602-.852-2.053-1.405-.45-.553-.676-1.222-.676-2.005 0-.614.123-1.141.369-1.582.246-.441.58-.804 1.004-1.089a4.494 4.494 0 0 1 1.47-.629 7.536 7.536 0 0 1 1.77-.201zm-15.113.188h9.563v2.166H9.506v9.646H6.789v-9.646H3.375z" fill="#FF9ACB" fill-opacity="0.92"/></g>
<text x="235.2" y="57.0" fill="#F6E9F1" font-family="ui-monospace,SFMono-Regular,Menlo,Consolas,monospace" font-size="14" font-weight="600" dominant-baseline="middle">TypeScript</text>
<rect x="343.2" y="38" width="138.0" height="36" rx="9" fill="#12080f" stroke="#FF1F8F" stroke-opacity="0.38"/>
<g transform="translate(357.2,47.5) scale(0.7083)"><path d="M0 0h24v24H0V0zm22.034 18.276c-.175-1.095-.888-2.015-3.003-2.873-.736-.345-1.554-.585-1.797-1.14-.091-.33-.105-.51-.046-.705.15-.646.915-.84 1.515-.66.39.12.75.42.976.9 1.034-.676 1.034-.676 1.755-1.125-.27-.42-.404-.601-.586-.78-.63-.705-1.469-1.065-2.834-1.034l-.705.089c-.676.165-1.32.525-1.71 1.005-1.14 1.291-.811 3.541.569 4.471 1.365 1.02 3.361 1.244 3.616 2.205.24 1.17-.87 1.545-1.966 1.41-.811-.18-1.26-.586-1.755-1.336l-1.83 1.051c.21.48.45.689.81 1.109 1.74 1.756 6.09 1.666 6.871-1.004.029-.09.24-.705.074-1.65l.046.067zm-8.983-7.245h-2.248c0 1.938-.009 3.864-.009 5.805 0 1.232.063 2.363-.138 2.711-.33.689-1.18.601-1.566.48-.396-.196-.597-.466-.83-.855-.063-.105-.11-.196-.127-.196l-1.825 1.125c.305.63.75 1.172 1.324 1.517.855.51 2.004.675 3.207.405.783-.226 1.458-.691 1.811-1.411.51-.93.402-2.07.397-3.346.012-2.054 0-4.109 0-6.179l.004-.056z" fill="#FF9ACB" fill-opacity="0.92"/></g>
<text x="383.2" y="57.0" fill="#F6E9F1" font-family="ui-monospace,SFMono-Regular,Menlo,Consolas,monospace" font-size="14" font-weight="600" dominant-baseline="middle">JavaScript</text>
<rect x="491.2" y="38" width="96.0" height="36" rx="9" fill="#12080f" stroke="#FF1F8F" stroke-opacity="0.38"/>
<g transform="translate(505.2,47.5) scale(0.7083)"><path d="M1.5 0h21l-1.91 21.563L11.977 24l-8.564-2.438L1.5 0zm7.031 9.75l-.232-2.718 10.059.003.23-2.622L5.412 4.41l.698 8.01h9.126l-.326 3.426-2.91.804-2.955-.81-.188-2.11H6.248l.33 4.171L12 19.351l5.379-1.443.744-8.157H8.531z" fill="#FF9ACB" fill-opacity="0.92"/></g>
<text x="531.2" y="57.0" fill="#F6E9F1" font-family="ui-monospace,SFMono-Regular,Menlo,Consolas,monospace" font-size="14" font-weight="600" dominant-baseline="middle">HTML5</text>
<rect x="597.2" y="38" width="87.6" height="36" rx="9" fill="#12080f" stroke="#FF1F8F" stroke-opacity="0.38"/>
<g transform="translate(611.2,47.5) scale(0.7083)"><path d="M1.5 0h21l-1.91 21.563L11.977 24l-8.565-2.438L1.5 0zm17.09 4.413L5.41 4.41l.213 2.622 10.125.002-.255 2.716h-6.64l.24 2.573h6.182l-.366 3.523-2.91.804-2.956-.81-.188-2.11h-2.61l.29 3.855L12 19.288l5.373-1.53L18.59 4.414z" fill="#FF9ACB" fill-opacity="0.92"/></g>
<text x="637.2" y="57.0" fill="#F6E9F1" font-family="ui-monospace,SFMono-Regular,Menlo,Consolas,monospace" font-size="14" font-weight="600" dominant-baseline="middle">CSS3</text>
<text x="440" y="116" fill="#FF1F8F" font-family="ui-monospace,SFMono-Regular,Menlo,Consolas,monospace" font-size="12" font-weight="700" letter-spacing="2.5" text-anchor="middle">FRONTEND</text>
<rect x="47.2" y="130" width="112.8" height="36" rx="9" fill="#12080f" stroke="#FF1F8F" stroke-opacity="0.38"/>
<g transform="translate(61.2,139.5) scale(0.7083)"><path d="M18.665 21.978C16.758 23.255 14.465 24 12 24 5.377 24 0 18.623 0 12S5.377 0 12 0s12 5.377 12 12c0 3.583-1.574 6.801-4.067 9.001L9.219 7.2H7.2v9.596h1.615V9.251l9.85 12.727Zm-3.332-8.533 1.6 2.061V7.2h-1.6v6.245Z" fill="#FF9ACB" fill-opacity="0.92"/></g>
<text x="87.2" y="149.0" fill="#F6E9F1" font-family="ui-monospace,SFMono-Regular,Menlo,Consolas,monospace" font-size="14" font-weight="600" dominant-baseline="middle">Next.js</text>
<rect x="170.0" y="130" width="96.0" height="36" rx="9" fill="#12080f" stroke="#FF1F8F" stroke-opacity="0.38"/>
<g transform="translate(184.0,139.5) scale(0.7083)"><path d="M14.23 12.004a2.236 2.236 0 0 1-2.235 2.236 2.236 2.236 0 0 1-2.236-2.236 2.236 2.236 0 0 1 2.235-2.236 2.236 2.236 0 0 1 2.236 2.236zm2.648-10.69c-1.346 0-3.107.96-4.888 2.622-1.78-1.653-3.542-2.602-4.887-2.602-.41 0-.783.093-1.106.278-1.375.793-1.683 3.264-.973 6.365C1.98 8.917 0 10.42 0 12.004c0 1.59 1.99 3.097 5.043 4.03-.704 3.113-.39 5.588.988 6.38.32.187.69.275 1.102.275 1.345 0 3.107-.96 4.888-2.624 1.78 1.654 3.542 2.603 4.887 2.603.41 0 .783-.09 1.106-.275 1.374-.792 1.683-3.263.973-6.365C22.02 15.096 24 13.59 24 12.004c0-1.59-1.99-3.097-5.043-4.032.704-3.11.39-5.587-.988-6.38-.318-.184-.688-.277-1.092-.278zm-.005 1.09v.006c.225 0 .406.044.558.127.666.382.955 1.835.73 3.704-.054.46-.142.945-.25 1.44-.96-.236-2.006-.417-3.107-.534-.66-.905-1.345-1.727-2.035-2.447 1.592-1.48 3.087-2.292 4.105-2.295zm-9.77.02c1.012 0 2.514.808 4.11 2.28-.686.72-1.37 1.537-2.02 2.442-1.107.117-2.154.298-3.113.538-.112-.49-.195-.964-.254-1.42-.23-1.868.054-3.32.714-3.707.19-.09.4-.127.563-.132zm4.882 3.05c.455.468.91.992 1.36 1.564-.44-.02-.89-.034-1.345-.034-.46 0-.915.01-1.36.034.44-.572.895-1.096 1.345-1.565zM12 8.1c.74 0 1.477.034 2.202.093.406.582.802 1.203 1.183 1.86.372.64.71 1.29 1.018 1.946-.308.655-.646 1.31-1.013 1.95-.38.66-.773 1.288-1.18 1.87-.728.063-1.466.098-2.21.098-.74 0-1.477-.035-2.202-.093-.406-.582-.802-1.204-1.183-1.86-.372-.64-.71-1.29-1.018-1.946.303-.657.646-1.313 1.013-1.954.38-.66.773-1.286 1.18-1.868.728-.064 1.466-.098 2.21-.098zm-3.635.254c-.24.377-.48.763-.704 1.16-.225.39-.435.782-.635 1.174-.265-.656-.49-1.31-.676-1.947.64-.15 1.315-.283 2.015-.386zm7.26 0c.695.103 1.365.23 2.006.387-.18.632-.405 1.282-.66 1.933-.2-.39-.41-.783-.64-1.174-.225-.392-.465-.774-.705-1.146zm3.063.675c.484.15.944.317 1.375.498 1.732.74 2.852 1.708 2.852 2.476-.005.768-1.125 1.74-2.857 2.475-.42.18-.88.342-1.355.493-.28-.958-.646-1.956-1.1-2.98.45-1.017.81-2.01 1.085-2.964zm-13.395.004c.278.96.645 1.957 1.1 2.98-.45 1.017-.812 2.01-1.086 2.964-.484-.15-.944-.318-1.37-.5-1.732-.737-2.852-1.706-2.852-2.474 0-.768 1.12-1.742 2.852-2.476.42-.18.88-.342 1.356-.494zm11.678 4.28c.265.657.49 1.312.676 1.948-.64.157-1.316.29-2.016.39.24-.375.48-.762.705-1.158.225-.39.435-.788.636-1.18zm-9.945.02c.2.392.41.783.64 1.175.23.39.465.772.705 1.143-.695-.102-1.365-.23-2.006-.386.18-.63.406-1.282.66-1.933zM17.92 16.32c.112.493.2.968.254 1.423.23 1.868-.054 3.32-.714 3.708-.147.09-.338.128-.563.128-1.012 0-2.514-.807-4.11-2.28.686-.72 1.37-1.536 2.02-2.44 1.107-.118 2.154-.3 3.113-.54zm-11.83.01c.96.234 2.006.415 3.107.532.66.905 1.345 1.727 2.035 2.446-1.595 1.483-3.092 2.295-4.11 2.295-.22-.005-.406-.05-.553-.132-.666-.38-.955-1.834-.73-3.703.054-.46.142-.944.25-1.438zm4.56.64c.44.02.89.034 1.345.034.46 0 .915-.01 1.36-.034-.44.572-.895 1.095-1.345 1.565-.455-.47-.91-.993-1.36-1.565z" fill="#FF9ACB" fill-opacity="0.92"/></g>
<text x="210.0" y="149.0" fill="#F6E9F1" font-family="ui-monospace,SFMono-Regular,Menlo,Consolas,monospace" font-size="14" font-weight="600" dominant-baseline="middle">React</text>
<rect x="276.0" y="130" width="154.8" height="36" rx="9" fill="#12080f" stroke="#FF1F8F" stroke-opacity="0.38"/>
<g transform="translate(290.0,139.5) scale(0.7083)"><path d="M14.23 12.004a2.236 2.236 0 0 1-2.235 2.236 2.236 2.236 0 0 1-2.236-2.236 2.236 2.236 0 0 1 2.235-2.236 2.236 2.236 0 0 1 2.236 2.236zm2.648-10.69c-1.346 0-3.107.96-4.888 2.622-1.78-1.653-3.542-2.602-4.887-2.602-.41 0-.783.093-1.106.278-1.375.793-1.683 3.264-.973 6.365C1.98 8.917 0 10.42 0 12.004c0 1.59 1.99 3.097 5.043 4.03-.704 3.113-.39 5.588.988 6.38.32.187.69.275 1.102.275 1.345 0 3.107-.96 4.888-2.624 1.78 1.654 3.542 2.603 4.887 2.603.41 0 .783-.09 1.106-.275 1.374-.792 1.683-3.263.973-6.365C22.02 15.096 24 13.59 24 12.004c0-1.59-1.99-3.097-5.043-4.032.704-3.11.39-5.587-.988-6.38-.318-.184-.688-.277-1.092-.278zm-.005 1.09v.006c.225 0 .406.044.558.127.666.382.955 1.835.73 3.704-.054.46-.142.945-.25 1.44-.96-.236-2.006-.417-3.107-.534-.66-.905-1.345-1.727-2.035-2.447 1.592-1.48 3.087-2.292 4.105-2.295zm-9.77.02c1.012 0 2.514.808 4.11 2.28-.686.72-1.37 1.537-2.02 2.442-1.107.117-2.154.298-3.113.538-.112-.49-.195-.964-.254-1.42-.23-1.868.054-3.32.714-3.707.19-.09.4-.127.563-.132zm4.882 3.05c.455.468.91.992 1.36 1.564-.44-.02-.89-.034-1.345-.034-.46 0-.915.01-1.36.034.44-.572.895-1.096 1.345-1.565zM12 8.1c.74 0 1.477.034 2.202.093.406.582.802 1.203 1.183 1.86.372.64.71 1.29 1.018 1.946-.308.655-.646 1.31-1.013 1.95-.38.66-.773 1.288-1.18 1.87-.728.063-1.466.098-2.21.098-.74 0-1.477-.035-2.202-.093-.406-.582-.802-1.204-1.183-1.86-.372-.64-.71-1.29-1.018-1.946.303-.657.646-1.313 1.013-1.954.38-.66.773-1.286 1.18-1.868.728-.064 1.466-.098 2.21-.098zm-3.635.254c-.24.377-.48.763-.704 1.16-.225.39-.435.782-.635 1.174-.265-.656-.49-1.31-.676-1.947.64-.15 1.315-.283 2.015-.386zm7.26 0c.695.103 1.365.23 2.006.387-.18.632-.405 1.282-.66 1.933-.2-.39-.41-.783-.64-1.174-.225-.392-.465-.774-.705-1.146zm3.063.675c.484.15.944.317 1.375.498 1.732.74 2.852 1.708 2.852 2.476-.005.768-1.125 1.74-2.857 2.475-.42.18-.88.342-1.355.493-.28-.958-.646-1.956-1.1-2.98.45-1.017.81-2.01 1.085-2.964zm-13.395.004c.278.96.645 1.957 1.1 2.98-.45 1.017-.812 2.01-1.086 2.964-.484-.15-.944-.318-1.37-.5-1.732-.737-2.852-1.706-2.852-2.474 0-.768 1.12-1.742 2.852-2.476.42-.18.88-.342 1.356-.494zm11.678 4.28c.265.657.49 1.312.676 1.948-.64.157-1.316.29-2.016.39.24-.375.48-.762.705-1.158.225-.39.435-.788.636-1.18zm-9.945.02c.2.392.41.783.64 1.175.23.39.465.772.705 1.143-.695-.102-1.365-.23-2.006-.386.18-.63.406-1.282.66-1.933zM17.92 16.32c.112.493.2.968.254 1.423.23 1.868-.054 3.32-.714 3.708-.147.09-.338.128-.563.128-1.012 0-2.514-.807-4.11-2.28.686-.72 1.37-1.536 2.02-2.44 1.107-.118 2.154-.3 3.113-.54zm-11.83.01c.96.234 2.006.415 3.107.532.66.905 1.345 1.727 2.035 2.446-1.595 1.483-3.092 2.295-4.11 2.295-.22-.005-.406-.05-.553-.132-.666-.38-.955-1.834-.73-3.703.054-.46.142-.944.25-1.438zm4.56.64c.44.02.89.034 1.345.034.46 0 .915-.01 1.36-.034-.44.572-.895 1.095-1.345 1.565-.455-.47-.91-.993-1.36-1.565z" fill="#FF9ACB" fill-opacity="0.92"/></g>
<text x="316.0" y="149.0" fill="#F6E9F1" font-family="ui-monospace,SFMono-Regular,Menlo,Consolas,monospace" font-size="14" font-weight="600" dominant-baseline="middle">React Native</text>
<rect x="440.8" y="130" width="87.6" height="36" rx="9" fill="#12080f" stroke="#FF1F8F" stroke-opacity="0.38"/>
<g transform="translate(454.8,139.5) scale(0.7083)"><path d="M0 20.084c.043.53.23 1.063.718 1.778.58.849 1.576 1.315 2.303.567.49-.505 5.794-9.776 8.35-13.29a.761.761 0 011.248 0c2.556 3.514 7.86 12.785 8.35 13.29.727.748 1.723.282 2.303-.567.57-.835.728-1.42.728-2.046 0-.426-8.26-15.798-9.092-17.078-.8-1.23-1.044-1.498-2.397-1.542h-1.032c-1.353.044-1.597.311-2.398 1.542C8.267 3.991.33 18.758 0 19.77Z" fill="#FF9ACB" fill-opacity="0.92"/></g>
<text x="480.8" y="149.0" fill="#F6E9F1" font-family="ui-monospace,SFMono-Regular,Menlo,Consolas,monospace" font-size="14" font-weight="600" dominant-baseline="middle">Expo</text>
<rect x="538.4" y="130" width="121.2" height="36" rx="9" fill="#12080f" stroke="#FF1F8F" stroke-opacity="0.38"/>
<g transform="translate(552.4,139.5) scale(0.7083)"><path d="M12.001,4.8c-3.2,0-5.2,1.6-6,4.8c1.2-1.6,2.6-2.2,4.2-1.8c0.913,0.228,1.565,0.89,2.288,1.624 C13.666,10.618,15.027,12,18.001,12c3.2,0,5.2-1.6,6-4.8c-1.2,1.6-2.6,2.2-4.2,1.8c-0.913-0.228-1.565-0.89-2.288-1.624 C16.337,6.182,14.976,4.8,12.001,4.8z M6.001,12c-3.2,0-5.2,1.6-6,4.8c1.2-1.6,2.6-2.2,4.2-1.8c0.913,0.228,1.565,0.89,2.288,1.624 c1.177,1.194,2.538,2.576,5.512,2.576c3.2,0,5.2-1.6,6-4.8c-1.2,1.6-2.6,2.2-4.2,1.8c-0.913-0.228-1.565-0.89-2.288-1.624 C10.337,13.382,8.976,12,6.001,12z" fill="#FF9ACB" fill-opacity="0.92"/></g>
<text x="578.4" y="149.0" fill="#F6E9F1" font-family="ui-monospace,SFMono-Regular,Menlo,Consolas,monospace" font-size="14" font-weight="600" dominant-baseline="middle">Tailwind</text>
<rect x="669.6" y="130" width="163.2" height="36" rx="9" fill="#12080f" stroke="#FF1F8F" stroke-opacity="0.38"/>
<g transform="translate(683.6,139.5) scale(0.7083)"><path d="M4 0h16v8h-8zM4 8h8l8 8H4zM4 16h8v8z" fill="#FF9ACB" fill-opacity="0.92"/></g>
<text x="709.6" y="149.0" fill="#F6E9F1" font-family="ui-monospace,SFMono-Regular,Menlo,Consolas,monospace" font-size="14" font-weight="600" dominant-baseline="middle">Framer Motion</text>
<text x="440" y="208" fill="#FF1F8F" font-family="ui-monospace,SFMono-Regular,Menlo,Consolas,monospace" font-size="12" font-weight="700" letter-spacing="2.5" text-anchor="middle">BACKEND &amp; OUTILS</text>
<rect x="97.6" y="222" width="112.8" height="36" rx="9" fill="#12080f" stroke="#FF1F8F" stroke-opacity="0.38"/>
<g transform="translate(111.6,231.5) scale(0.7083)"><path d="M11.998,24c-0.321,0-0.641-0.084-0.922-0.247l-2.936-1.737c-0.438-0.245-0.224-0.332-0.08-0.383 c0.585-0.203,0.703-0.25,1.328-0.604c0.065-0.037,0.151-0.023,0.218,0.017l2.256,1.339c0.082,0.045,0.197,0.045,0.272,0l8.795-5.076 c0.082-0.047,0.134-0.141,0.134-0.238V6.921c0-0.099-0.053-0.192-0.137-0.242l-8.791-5.072c-0.081-0.047-0.189-0.047-0.271,0 L3.075,6.68C2.99,6.729,2.936,6.825,2.936,6.921v10.15c0,0.097,0.054,0.189,0.139,0.235l2.409,1.392 c1.307,0.654,2.108-0.116,2.108-0.89V7.787c0-0.142,0.114-0.253,0.256-0.253h1.115c0.139,0,0.255,0.112,0.255,0.253v10.021 c0,1.745-0.95,2.745-2.604,2.745c-0.508,0-0.909,0-2.026-0.551L2.28,18.675c-0.57-0.329-0.922-0.945-0.922-1.604V6.921 c0-0.659,0.353-1.275,0.922-1.603l8.795-5.082c0.557-0.315,1.296-0.315,1.848,0l8.794,5.082c0.57,0.329,0.924,0.944,0.924,1.603 v10.15c0,0.659-0.354,1.273-0.924,1.604l-8.794,5.078C12.643,23.916,12.324,24,11.998,24z M19.099,13.993 c0-1.9-1.284-2.406-3.987-2.763c-2.731-0.361-3.009-0.548-3.009-1.187c0-0.528,0.235-1.233,2.258-1.233 c1.807,0,2.473,0.389,2.747,1.607c0.024,0.115,0.129,0.199,0.247,0.199h1.141c0.071,0,0.138-0.031,0.186-0.081 c0.048-0.054,0.074-0.123,0.067-0.196c-0.177-2.098-1.571-3.076-4.388-3.076c-2.508,0-4.004,1.058-4.004,2.833 c0,1.925,1.488,2.457,3.895,2.695c2.88,0.282,3.103,0.703,3.103,1.269c0,0.983-0.789,1.402-2.642,1.402 c-2.327,0-2.839-0.584-3.011-1.742c-0.02-0.124-0.126-0.215-0.253-0.215h-1.137c-0.141,0-0.254,0.112-0.254,0.253 c0,1.482,0.806,3.248,4.655,3.248C17.501,17.007,19.099,15.91,19.099,13.993z" fill="#FF9ACB" fill-opacity="0.92"/></g>
<text x="137.6" y="241.0" fill="#F6E9F1" font-family="ui-monospace,SFMono-Regular,Menlo,Consolas,monospace" font-size="14" font-weight="600" dominant-baseline="middle">Node.js</text>
<rect x="220.4" y="222" width="104.4" height="36" rx="9" fill="#12080f" stroke="#FF1F8F" stroke-opacity="0.38"/>
<g transform="translate(234.4,231.5) scale(0.7083)"><path d="M14.131.047c-.173 0-.334.037-.483.087.316.21.49.49.576.806.007.043.019.074.025.117a.681.681 0 0 1 .013.112c.024.545-.143.614-.26.936-.18.415-.13.861.086 1.22a.74.74 0 0 0 .074.137c-.235-1.568 1.073-1.803 1.314-2.293.019-.428-.334-.713-.613-.911a1.37 1.37 0 0 0-.732-.21zM16.102.4c-.024.143-.006.106-.012.18-.006.05-.006.112-.012.161-.013.05-.025.1-.044.149-.012.05-.03.1-.05.149l-.067.142c-.02.025-.031.05-.05.075l-.037.055a2.152 2.152 0 0 1-.093.124c-.037.038-.068.081-.112.112v.006c-.037.031-.074.068-.118.1-.13.099-.278.173-.415.266-.043.03-.087.056-.124.093a.906.906 0 0 0-.118.099c-.043.037-.074.074-.111.118-.031.037-.068.08-.093.124a1.582 1.582 0 0 0-.087.13c-.025.05-.043.093-.068.142-.019.05-.037.093-.05.143a2.007 2.007 0 0 0-.043.155c-.006.025-.006.056-.012.08-.007.025-.007.05-.013.075 0 .05-.006.105-.006.155 0 .037 0 .074.006.111 0 .05.006.1.019.155.006.05.018.1.03.15.02.049.032.098.05.148.013.03.031.062.044.087l-1.426-.552c-.241-.068-.477-.13-.719-.186l-.39-.093c-.372-.074-.75-.13-1.128-.167-.013 0-.019-.006-.031-.006A11.082 11.082 0 0 0 8.9 2.855c-.378.025-.756.074-1.134.136a12.45 12.45 0 0 0-.837.174l-.279.074c-.092.037-.18.08-.266.118l-.205.093c-.012.006-.024.006-.03.012-.063.031-.118.056-.174.087a2.738 2.738 0 0 0-.236.118c-.043.018-.086.043-.124.062a.559.559 0 0 1-.055.03c-.056.032-.112.063-.162.094a1.56 1.56 0 0 0-.148.093c-.044.03-.087.055-.124.086-.006.007-.013.007-.019.013-.037.025-.08.056-.118.087l-.012.012-.093.074c-.012.007-.025.019-.037.025-.031.025-.062.056-.093.08-.006.013-.019.02-.025.025-.037.038-.074.069-.111.106-.007 0-.007.006-.013.012a1.742 1.742 0 0 0-.111.106c-.007.006-.007.012-.013.012a1.454 1.454 0 0 0-.093.1c-.012.012-.03.024-.043.036a1.374 1.374 0 0 1-.106.112c-.006.012-.018.019-.024.03-.05.05-.093.1-.143.15l-.018.018c-.1.106-.205.211-.317.304-.111.1-.229.192-.347.273a3.777 3.777 0 0 1-.762.421c-.13.056-.267.106-.403.149-.26.056-.527.161-.756.18-.05 0-.105.012-.155.018l-.155.037-.149.056c-.05.019-.099.044-.148.068-.044.031-.093.056-.137.087a1.011 1.011 0 0 0-.124.106c-.043.03-.087.074-.124.111-.037.043-.074.08-.105.124-.031.05-.068.093-.093.143a1.092 1.092 0 0 0-.087.142c-.025.056-.05.106-.068.161-.019.05-.037.106-.056.161-.012.05-.025.1-.03.15 0 .005-.007.012-.007.018-.012.056-.012.13-.019.167C.006 7.95 0 7.986 0 8.03a.657.657 0 0 0 .074.31v.006c.019.037.044.075.069.112.024.037.05.074.08.111.031.031.068.069.106.1a.906.906 0 0 0 .117.099c.149.13.186.173.378.272.031.019.062.031.1.05.006 0 .012.006.018.006 0 .013 0 .019.006.031a1.272 1.272 0 0 0 .08.298c.02.037.032.074.05.111.007.013.013.025.02.031.024.05.049.093.073.137l.093.13c.031.037.069.08.106.118.037.037.074.068.118.105 0 0 .006.006.012.006.037.031.074.062.112.087a.986.986 0 0 0 .136.08c.043.025.093.05.142.069a.73.73 0 0 0 .124.043c.007.006.013.006.025.012.025.007.056.013.08.019-.018.335-.024.65.026.762.055.124.328-.254.6-.688-.036.428-.061.93 0 1.079.069.155.44-.329.763-.862 4.395-1.016 8.405 2.02 8.826 6.31-.08-.67-.905-1.041-1.283-.948-.186.458-.502 1.047-1.01 1.413.043-.41.025-.83-.062-1.24a4.009 4.009 0 0 1-.769 1.562c-.588.043-1.177-.242-1.487-.67-.025-.018-.031-.055-.05-.08-.018-.043-.037-.087-.05-.13a.515.515 0 0 1-.037-.13c-.006-.044-.006-.087-.006-.137v-.093a.992.992 0 0 1 .031-.13c.013-.043.025-.086.044-.13.024-.043.043-.087.074-.13.105-.298.105-.54-.087-.682a.706.706 0 0 0-.118-.062c-.024-.006-.055-.018-.08-.025l-.05-.018a.847.847 0 0 0-.13-.031.472.472 0 0 0-.13-.019 1.01 1.01 0 0 0-.136-.012c-.031 0-.062.006-.093.006a.484.484 0 0 0-.137.019c-.043.006-.086.012-.13.024a1.068 1.068 0 0 0-.13.044c-.043.018-.08.037-.124.056-.037.018-.074.043-.118.062-1.444.942-.582 3.148.403 3.787-.372.068-.75.148-.855.229l-.013.012c.267.161.546.298.837.416.397.13.818.247 1.004.297v.006a5.996 5.996 0 0 0 1.562.112c2.746-.192 4.996-2.281 5.405-5.033l.037.161c.019.112.043.23.056.347v.006c.012.056.018.112.025.162v.024c.006.056.012.112.012.162.006.068.012.136.012.204v.1c0 .03.007.067.007.098 0 .038-.007.075-.007.112v.087c0 .043-.006.08-.006.124 0 .025 0 .05-.006.08 0 .044-.006.087-.006.137-.006.018-.006.037-.006.055l-.02.143c0 .019 0 .037-.005.056-.007.062-.019.118-.025.18v.012l-.037.174v.018l-.037.167c0 .007-.007.02-.007.025a1.663 1.663 0 0 1-.043.168v.018c-.019.062-.037.118-.05.174-.006.006-.006.012-.006.012l-.056.186c-.024.062-.043.118-.068.18-.025.062-.043.124-.068.18-.025.062-.05.117-.074.18h-.007c-.024.055-.05.117-.08.173a.302.302 0 0 1-.019.043c-.006.006-.006.013-.012.019a5.867 5.867 0 0 1-1.742 2.082c-.05.031-.099.069-.149.106-.012.012-.03.018-.043.03a2.603 2.603 0 0 1-.136.094l.018.037h.007l.26-.037h.006c.161-.025.322-.056.483-.087.044-.006.093-.019.137-.031l.087-.019c.043-.006.086-.018.13-.024.037-.013.074-.02.111-.031.62-.15 1.221-.354 1.798-.595a9.926 9.926 0 0 1-3.85 3.142c.714-.05 1.426-.167 2.114-.366a9.903 9.903 0 0 0 5.857-4.68 9.893 9.893 0 0 1-1.667 3.986 9.758 9.758 0 0 0 1.655-1.376 9.824 9.824 0 0 0 2.61-5.268c.21.98.272 1.99.18 2.987 4.474-6.241.371-12.712-1.346-14.416-.006-.013-.012-.019-.012-.031-.006.006-.006.006-.006.012 0-.006 0-.006-.007-.012 0 .074-.006.148-.012.223a8.34 8.34 0 0 1-.062.415c-.03.136-.068.273-.105.41-.044.13-.093.266-.15.396a5.322 5.322 0 0 1-.185.378 4.735 4.735 0 0 1-.477.688c-.093.111-.192.21-.292.31a3.994 3.994 0 0 1-.18.155l-.142.124a3.459 3.459 0 0 1-.347.241 4.295 4.295 0 0 1-.366.211c-.13.062-.26.118-.39.174a4.364 4.364 0 0 1-.818.223c-.143.025-.285.037-.422.05a4.914 4.914 0 0 1-.297.012 4.66 4.66 0 0 1-.422-.025 3.137 3.137 0 0 1-.421-.062 3.136 3.136 0 0 1-.415-.105h-.007c.137-.013.273-.025.41-.05a4.493 4.493 0 0 0 .818-.223c.136-.05.266-.112.39-.174.13-.062.248-.13.372-.204.118-.08.235-.161.347-.248.112-.087.217-.18.316-.279.105-.093.198-.198.291-.304.093-.111.18-.223.26-.334.013-.019.026-.044.038-.062.062-.1.124-.199.18-.298a4.272 4.272 0 0 0 .334-.775c.044-.13.075-.266.106-.403.025-.142.05-.278.062-.415.012-.142.025-.285.025-.421 0-.1-.007-.199-.013-.298a6.726 6.726 0 0 0-.05-.415 4.493 4.493 0 0 0-.092-.415c-.044-.13-.087-.267-.137-.397-.05-.13-.111-.26-.173-.384-.069-.124-.137-.248-.211-.366a6.843 6.843 0 0 0-.248-.34c-.093-.106-.186-.212-.285-.317a3.878 3.878 0 0 0-.161-.155c-.28-.217-.57-.421-.862-.607a1.154 1.154 0 0 0-.124-.062 2.415 2.415 0 0 0-.589-.26Z" fill="#FF9ACB" fill-opacity="0.92"/></g>
<text x="260.4" y="241.0" fill="#F6E9F1" font-family="ui-monospace,SFMono-Regular,Menlo,Consolas,monospace" font-size="14" font-weight="600" dominant-baseline="middle">NestJS</text>
<rect x="334.8" y="222" width="129.6" height="36" rx="9" fill="#12080f" stroke="#FF1F8F" stroke-opacity="0.38"/>
<g transform="translate(348.8,231.5) scale(0.7083)"><path d="M6.155 12.058c0 .503.095.967.285 1.392.19.424.447.793.771 1.106.324.313.699.56 1.123.738.437.168.895.252 1.375.252.481 0 .934-.084 1.359-.252a3.578 3.578 0 0 0 1.14-.738 3.37 3.37 0 0 0 1.073-2.498 3.371 3.371 0 0 0-1.073-2.498 3.356 3.356 0 0 0-1.14-.721 3.463 3.463 0 0 0-1.359-.269c-.48 0-.938.09-1.374.269-.425.167-.8.408-1.124.72a3.52 3.52 0 0 0-.771 1.107 3.37 3.37 0 0 0-.285 1.392Zm-3.437 0c0-.939.173-1.81.52-2.616a6.524 6.524 0 0 1 1.441-2.13 6.503 6.503 0 0 1 2.197-1.408c.86-.346 1.805-.52 2.833-.52 1.018 0 1.957.174 2.817.52a6.47 6.47 0 0 1 2.213 1.409 6.542 6.542 0 0 1 1.979 4.745c0 .939-.173 1.816-.52 2.632a6.45 6.45 0 0 1-1.459 2.113 6.678 6.678 0 0 1-2.213 1.425c-.86.335-1.8.503-2.817.503-1.028 0-1.973-.168-2.833-.503a6.717 6.717 0 0 1-2.197-1.425 6.572 6.572 0 0 1-1.442-2.113 6.663 6.663 0 0 1-.52-2.632ZM10.144.008c-2.76-.096-5.52.76-7.805 2.569l1.523.857C5.67 2.1 7.955 1.53 10.144 1.625V.007Zm8.09 3.616C16.331 1.625 13.856.388 11.191.102V1.72a10.725 10.725 0 0 1 5.901 3.046l1.142-1.142Zm3.427 7.805c-.095-2.475-1.047-4.95-2.665-7.043l-1.142 1.142c1.332 1.808 2.094 3.807 2.189 5.9h1.618Zm-2.665 8.185c1.618-2.094 2.57-4.568 2.665-7.043h-1.618c-.095 2.094-.857 4.093-2.19 5.901l1.143 1.142Zm-7.805 4.284c2.57-.286 5.14-1.523 7.043-3.522l-1.142-1.142c-1.618 1.713-3.712 2.76-5.901 3.046v1.618Zm-8.852-2.475a11.867 11.867 0 0 0 7.805 2.57v-1.618c-2.19.095-4.378-.476-6.282-1.809l-1.523.857Z" fill="#FF9ACB" fill-opacity="0.92"/></g>
<text x="374.8" y="241.0" fill="#F6E9F1" font-family="ui-monospace,SFMono-Regular,Menlo,Consolas,monospace" font-size="14" font-weight="600" dominant-baseline="middle">Turborepo</text>
<rect x="474.4" y="222" width="104.4" height="36" rx="9" fill="#12080f" stroke="#FF1F8F" stroke-opacity="0.38"/>
<g transform="translate(488.4,231.5) scale(0.7083)"><path d="M24 22.525H0l12-21.05 12 21.05z" fill="#FF9ACB" fill-opacity="0.92"/></g>
<text x="514.4" y="241.0" fill="#F6E9F1" font-family="ui-monospace,SFMono-Regular,Menlo,Consolas,monospace" font-size="14" font-weight="600" dominant-baseline="middle">Vercel</text>
<rect x="588.8" y="222" width="104.4" height="36" rx="9" fill="#12080f" stroke="#FF1F8F" stroke-opacity="0.38"/>
<g transform="translate(602.8,231.5) scale(0.7083)"><path d="M11.04 19.32Q12 21.51 12 24q0-2.49.93-4.68.96-2.19 2.58-3.81t3.81-2.55Q21.51 12 24 12q-2.49 0-4.68-.93a12.3 12.3 0 0 1-3.81-2.58 12.3 12.3 0 0 1-2.58-3.81Q12 2.49 12 0q0 2.49-.96 4.68-.93 2.19-2.55 3.81a12.3 12.3 0 0 1-3.81 2.58Q2.49 12 0 12q2.49 0 4.68.96 2.19.93 3.81 2.55t2.55 3.81" fill="#FF9ACB" fill-opacity="0.92"/></g>
<text x="628.8" y="241.0" fill="#F6E9F1" font-family="ui-monospace,SFMono-Regular,Menlo,Consolas,monospace" font-size="14" font-weight="600" dominant-baseline="middle">Gemini</text>
<rect x="703.2" y="222" width="79.2" height="36" rx="9" fill="#12080f" stroke="#FF1F8F" stroke-opacity="0.38"/>
<g transform="translate(717.2,231.5) scale(0.7083)"><path d="M23.546 10.93L13.067.452c-.604-.603-1.582-.603-2.188 0L8.708 2.627l2.76 2.76c.645-.215 1.379-.07 1.889.441.516.515.658 1.258.438 1.9l2.658 2.66c.645-.223 1.387-.078 1.9.435.721.72.721 1.884 0 2.604-.719.719-1.881.719-2.6 0-.539-.541-.674-1.337-.404-1.996L12.86 8.955v6.525c.176.086.342.203.488.348.713.721.713 1.883 0 2.6-.719.721-1.889.721-2.609 0-.719-.719-.719-1.879 0-2.598.182-.18.387-.316.605-.406V8.835c-.217-.091-.424-.222-.6-.401-.545-.545-.676-1.342-.396-2.009L7.636 3.7.45 10.881c-.6.605-.6 1.584 0 2.189l10.48 10.477c.604.604 1.582.604 2.186 0l10.43-10.43c.605-.603.605-1.582 0-2.187" fill="#FF9ACB" fill-opacity="0.92"/></g>
<text x="743.2" y="241.0" fill="#F6E9F1" font-family="ui-monospace,SFMono-Regular,Menlo,Consolas,monospace" font-size="14" font-weight="600" dominant-baseline="middle">Git</text>
</svg>